<svg xmlns="http://www.w3.org/2000/svg" xmlns:xlink="http://www.w3.org/1999/xlink" zoomAndPan="magnify"
     viewBox="80 97 215 130" preserveAspectRatio="xMidYMid meet" version="1.0">
    <defs>
        <g/>
        <clipPath id="df35c174e4">
            <path d="M 154.914062 96.003906 L 220.164062 96.003906 L 220.164062 150 L 154.914062 150 Z M 154.914062 96.003906 "
                  clip-rule="nonzero"/>
        </clipPath>
    </defs>
    <g clip-path="url(#df35c174e4)">
        <path fill="#ffffff"
              d="M 174.007812 149.011719 L 184.261719 138.757812 C 184.785156 138.234375 185.640625 138.234375 186.164062 138.757812 L 195.199219 147.792969 C 196.171875 148.769531 197.757812 148.769531 198.730469 147.792969 L 201.871094 144.652344 C 202.34375 144.183594 202.601562 143.554688 202.601562 142.886719 C 202.601562 142.21875 202.34375 141.59375 201.871094 141.121094 L 186.976562 126.230469 C 186.003906 125.257812 184.421875 125.257812 183.445312 126.230469 L 167.335938 142.339844 C 166.359375 143.316406 166.359375 144.898438 167.335938 145.875 L 170.476562 149.011719 C 170.960938 149.5 171.601562 149.742188 172.242188 149.742188 C 172.878906 149.742188 173.519531 149.5 174.007812 149.011719 Z M 216.210938 142.03125 L 219.351562 138.890625 C 219.824219 138.417969 220.082031 137.789062 220.082031 137.125 C 220.082031 136.457031 219.824219 135.828125 219.351562 135.355469 L 198.601562 114.605469 C 197.628906 113.632812 196.042969 113.632812 195.070312 114.605469 L 191.929688 117.746094 C 190.957031 118.71875 190.957031 120.304688 191.929688 121.277344 L 212.679688 142.03125 C 213.167969 142.515625 213.804688 142.761719 214.445312 142.761719 C 215.085938 142.761719 215.726562 142.515625 216.210938 142.03125 Z M 160.554688 138.058594 C 159.886719 138.058594 159.261719 137.796875 158.789062 137.328125 L 155.648438 134.1875 C 155.175781 133.714844 154.917969 133.085938 154.917969 132.421875 C 154.917969 131.753906 155.175781 131.125 155.648438 130.65625 L 189.324219 96.980469 C 190.296875 96.007812 191.878906 96.007812 192.855469 96.980469 L 195.996094 100.121094 C 196.96875 101.09375 196.96875 102.679688 195.996094 103.652344 L 162.320312 137.328125 C 161.847656 137.796875 161.222656 138.058594 160.554688 138.058594 "
              fill-opacity="1" fill-rule="nonzero"/>
    </g>
    <g fill="#ffffff" fill-opacity="1">
        <g transform="translate(77.686767, 197.564151)">
            <g>
                <path d="M 21.25 0 L 13.875 -13.4375 L 13.875 0 L 2.59375 0 L 2.59375 -30.34375 L 15.171875 -30.34375 L 22.546875 -16.90625 L 22.546875 -30.34375 L 33.8125 -30.34375 L 33.8125 0 Z M 21.25 0 "/>
            </g>
        </g>
    </g>
    <g fill="#ffffff" fill-opacity="1">
        <g transform="translate(114.109717, 197.564151)">
            <g>
                <path d="M 24.0625 -30.34375 C 24.0625 -30.320312 24.191406 -29.875 24.453125 -29 C 24.710938 -28.132812 25.050781 -26.976562 25.46875 -25.53125 C 25.894531 -24.09375 26.363281 -22.476562 26.875 -20.6875 C 27.394531 -18.894531 27.9375 -17.035156 28.5 -15.109375 C 29.070312 -13.191406 29.625 -11.332031 30.15625 -9.53125 C 30.6875 -7.738281 31.160156 -6.128906 31.578125 -4.703125 C 32.003906 -3.273438 32.335938 -2.132812 32.578125 -1.28125 C 32.828125 -0.425781 32.953125 0 32.953125 0 L 20.375 0 L 19.515625 -4.328125 L 13.875 -4.328125 L 13 0 L 0.4375 0 L 9.328125 -30.34375 Z M 15.171875 -11.265625 L 18.203125 -11.265625 L 16.6875 -19.078125 Z M 15.171875 -11.265625 "/>
            </g>
        </g>
    </g>
    <g fill="#ffffff" fill-opacity="1">
        <g transform="translate(147.49742, 197.564151)">
            <g>
                <path d="M 11.921875 -8.234375 C 12.472656 -8.234375 12.898438 -8.367188 13.203125 -8.640625 C 13.503906 -8.921875 13.65625 -9.21875 13.65625 -9.53125 C 13.65625 -9.914062 13.375 -10.242188 12.8125 -10.515625 C 12.25 -10.785156 11.523438 -11.085938 10.640625 -11.421875 C 9.765625 -11.753906 8.828125 -12.160156 7.828125 -12.640625 C 6.828125 -13.117188 5.878906 -13.722656 4.984375 -14.453125 C 4.085938 -15.191406 3.359375 -16.109375 2.796875 -17.203125 C 2.234375 -18.304688 1.953125 -19.65625 1.953125 -21.25 C 1.953125 -22.925781 2.457031 -24.5 3.46875 -25.96875 C 4.476562 -27.445312 5.90625 -28.65625 7.75 -29.59375 C 9.601562 -30.53125 11.789062 -31 14.3125 -31 C 16.269531 -31 17.976562 -30.757812 19.4375 -30.28125 C 20.90625 -29.8125 22.125 -29.253906 23.09375 -28.609375 C 24.0625 -27.972656 24.789062 -27.414062 25.28125 -26.9375 C 25.769531 -26.46875 26.015625 -26.234375 26.015625 -26.234375 L 21.890625 -19.734375 C 21.890625 -19.734375 21.628906 -19.929688 21.109375 -20.328125 C 20.585938 -20.734375 19.898438 -21.128906 19.046875 -21.515625 C 18.203125 -21.910156 17.273438 -22.109375 16.265625 -22.109375 C 15.710938 -22.109375 15.285156 -21.972656 14.984375 -21.703125 C 14.679688 -21.429688 14.53125 -21.132812 14.53125 -20.8125 C 14.53125 -20.46875 14.8125 -20.148438 15.375 -19.859375 C 15.9375 -19.566406 16.664062 -19.253906 17.5625 -18.921875 C 18.457031 -18.585938 19.398438 -18.179688 20.390625 -17.703125 C 21.390625 -17.234375 22.332031 -16.628906 23.21875 -15.890625 C 24.101562 -15.148438 24.828125 -14.226562 25.390625 -13.125 C 25.953125 -12.03125 26.234375 -10.691406 26.234375 -9.109375 C 26.234375 -7.460938 25.726562 -5.894531 24.71875 -4.40625 C 23.707031 -2.914062 22.28125 -1.695312 20.4375 -0.75 C 18.601562 0.1875 16.414062 0.65625 13.875 0.65625 C 11.5 0.65625 9.457031 0.394531 7.75 -0.125 C 6.050781 -0.644531 4.660156 -1.25 3.578125 -1.9375 C 2.492188 -2.632812 1.695312 -3.242188 1.1875 -3.765625 C 0.6875 -4.285156 0.4375 -4.546875 0.4375 -4.546875 L 4.546875 -11.0625 C 4.546875 -11.0625 4.726562 -10.914062 5.09375 -10.625 C 5.457031 -10.332031 5.960938 -10.003906 6.609375 -9.640625 C 7.265625 -9.285156 8.046875 -8.960938 8.953125 -8.671875 C 9.859375 -8.378906 10.847656 -8.234375 11.921875 -8.234375 Z M 11.921875 -8.234375 "/>
            </g>
        </g>
    </g>
    <g fill="#ffffff" fill-opacity="1">
        <g transform="translate(174.597835, 197.564151)">
            <g>
                <path d="M 24.0625 -30.34375 C 24.0625 -30.320312 24.191406 -29.875 24.453125 -29 C 24.710938 -28.132812 25.050781 -26.976562 25.46875 -25.53125 C 25.894531 -24.09375 26.363281 -22.476562 26.875 -20.6875 C 27.394531 -18.894531 27.9375 -17.035156 28.5 -15.109375 C 29.070312 -13.191406 29.625 -11.332031 30.15625 -9.53125 C 30.6875 -7.738281 31.160156 -6.128906 31.578125 -4.703125 C 32.003906 -3.273438 32.335938 -2.132812 32.578125 -1.28125 C 32.828125 -0.425781 32.953125 0 32.953125 0 L 20.375 0 L 19.515625 -4.328125 L 13.875 -4.328125 L 13 0 L 0.4375 0 L 9.328125 -30.34375 Z M 15.171875 -11.265625 L 18.203125 -11.265625 L 16.6875 -19.078125 Z M 15.171875 -11.265625 "/>
            </g>
        </g>
    </g>
    <g fill="#ffffff" fill-opacity="1">
        <g transform="translate(207.985538, 197.564151)">
            <g/>
        </g>
    </g>
    <g fill="#ffffff" fill-opacity="1">
        <g transform="translate(216.657667, 197.564151)">
            <g>
                <path d="M 24.0625 -30.34375 C 24.0625 -30.320312 24.191406 -29.875 24.453125 -29 C 24.710938 -28.132812 25.050781 -26.976562 25.46875 -25.53125 C 25.894531 -24.09375 26.363281 -22.476562 26.875 -20.6875 C 27.394531 -18.894531 27.9375 -17.035156 28.5 -15.109375 C 29.070312 -13.191406 29.625 -11.332031 30.15625 -9.53125 C 30.6875 -7.738281 31.160156 -6.128906 31.578125 -4.703125 C 32.003906 -3.273438 32.335938 -2.132812 32.578125 -1.28125 C 32.828125 -0.425781 32.953125 0 32.953125 0 L 20.375 0 L 19.515625 -4.328125 L 13.875 -4.328125 L 13 0 L 0.4375 0 L 9.328125 -30.34375 Z M 15.171875 -11.265625 L 18.203125 -11.265625 L 16.6875 -19.078125 Z M 15.171875 -11.265625 "/>
            </g>
        </g>
    </g>
    <g fill="#ffffff" fill-opacity="1">
        <g transform="translate(250.045371, 197.564151)">
            <g>
                <path d="M 15.609375 -30.78125 C 18.785156 -30.78125 21.398438 -30.332031 23.453125 -29.4375 C 25.503906 -28.539062 27.019531 -27.296875 28 -25.703125 C 28.988281 -24.117188 29.484375 -22.269531 29.484375 -20.15625 C 29.484375 -18.082031 29.019531 -16.242188 28.09375 -14.640625 C 27.164062 -13.035156 25.828125 -11.78125 24.078125 -10.875 C 22.335938 -9.976562 20.238281 -9.53125 17.78125 -9.53125 C 17.195312 -9.53125 16.601562 -9.550781 16 -9.59375 C 15.394531 -9.644531 14.890625 -9.679688 14.484375 -9.703125 C 14.078125 -9.734375 13.875 -9.75 13.875 -9.75 L 13.875 0 L 2.59375 0 L 2.59375 -30.34375 C 2.59375 -30.34375 3.191406 -30.378906 4.390625 -30.453125 C 5.597656 -30.523438 7.191406 -30.597656 9.171875 -30.671875 C 11.148438 -30.742188 13.296875 -30.78125 15.609375 -30.78125 Z M 13.875 -17.78125 L 15.609375 -17.78125 C 16.359375 -17.78125 16.976562 -18.015625 17.46875 -18.484375 C 17.957031 -18.960938 18.203125 -19.519531 18.203125 -20.15625 C 18.203125 -20.820312 17.957031 -21.382812 17.46875 -21.84375 C 16.976562 -22.3125 16.359375 -22.546875 15.609375 -22.546875 L 13.875 -22.546875 Z M 13.875 -17.78125 "/>
            </g>
        </g>
    </g>
    <g fill="#ffffff" fill-opacity="1">
        <g transform="translate(280.83145, 197.564151)">
            <g>
                <path d="M 13.875 -30.34375 L 13.875 0 L 2.59375 0 L 2.59375 -30.34375 Z M 13.875 -30.34375 "/>
            </g>
        </g>
    </g>
    <g fill="#ffffff" fill-opacity="1">
        <g transform="translate(114.819542, 222.042732)">
            <g>
                <path d="M 4.734375 -2.96875 L 2.03125 -2.96875 L 2.03125 -1.140625 L 5.203125 -1.140625 L 5.203125 0 L 0.609375 0 L 0.609375 -6.859375 L 5.203125 -6.859375 L 5.203125 -5.703125 L 2.03125 -5.703125 L 2.03125 -4.078125 L 4.734375 -4.078125 Z M 4.734375 -2.96875 "/>
            </g>
        </g>
    </g>
    <g fill="#ffffff" fill-opacity="1">
        <g transform="translate(122.164678, 222.042732)">
            <g>
                <path d="M 3.0625 -4.484375 L 4.34375 -6.859375 L 5.96875 -6.859375 L 3.984375 -3.453125 L 6.03125 0 L 4.375 0 L 3.0625 -2.40625 L 1.75 0 L 0.109375 0 L 2.15625 -3.453125 L 0.15625 -6.859375 L 1.78125 -6.859375 Z M 3.0625 -4.484375 "/>
            </g>
        </g>
    </g>
    <g fill="#ffffff" fill-opacity="1">
        <g transform="translate(130.210583, 222.042732)">
            <g>
                <path d="M 2.03125 -2.421875 L 2.03125 0 L 0.609375 0 L 0.609375 -6.859375 L 3.28125 -6.859375 C 3.800781 -6.859375 4.253906 -6.757812 4.640625 -6.5625 C 5.035156 -6.375 5.335938 -6.109375 5.546875 -5.765625 C 5.753906 -5.421875 5.859375 -5.023438 5.859375 -4.578125 C 5.859375 -3.910156 5.628906 -3.382812 5.171875 -3 C 4.710938 -2.613281 4.078125 -2.421875 3.265625 -2.421875 Z M 2.03125 -3.5625 L 3.28125 -3.5625 C 3.65625 -3.5625 3.941406 -3.648438 4.140625 -3.828125 C 4.335938 -4.003906 4.4375 -4.253906 4.4375 -4.578125 C 4.4375 -4.910156 4.335938 -5.179688 4.140625 -5.390625 C 3.941406 -5.597656 3.664062 -5.703125 3.3125 -5.703125 L 2.03125 -5.703125 Z M 2.03125 -3.5625 "/>
            </g>
        </g>
    </g>
    <g fill="#ffffff" fill-opacity="1">
        <g transform="translate(138.350547, 222.042732)">
            <g>
                <path d="M 2.03125 -1.140625 L 5.015625 -1.140625 L 5.015625 0 L 0.609375 0 L 0.609375 -6.859375 L 2.03125 -6.859375 Z M 2.03125 -1.140625 "/>
            </g>
        </g>
    </g>
    <g fill="#ffffff" fill-opacity="1">
        <g transform="translate(145.192415, 222.042732)">
            <g>
                <path d="M 6.234375 -3.265625 C 6.234375 -2.597656 6.113281 -2.007812 5.875 -1.5 C 5.644531 -0.988281 5.304688 -0.59375 4.859375 -0.3125 C 4.410156 -0.0390625 3.898438 0.09375 3.328125 0.09375 C 2.765625 0.09375 2.257812 -0.0390625 1.8125 -0.3125 C 1.363281 -0.582031 1.015625 -0.972656 0.765625 -1.484375 C 0.523438 -1.992188 0.40625 -2.578125 0.40625 -3.234375 L 0.40625 -3.578125 C 0.40625 -4.242188 0.523438 -4.832031 0.765625 -5.34375 C 1.015625 -5.863281 1.359375 -6.257812 1.796875 -6.53125 C 2.242188 -6.8125 2.753906 -6.953125 3.328125 -6.953125 C 3.898438 -6.953125 4.40625 -6.8125 4.84375 -6.53125 C 5.289062 -6.257812 5.632812 -5.863281 5.875 -5.34375 C 6.113281 -4.832031 6.234375 -4.242188 6.234375 -3.578125 Z M 4.8125 -3.578125 C 4.8125 -4.296875 4.679688 -4.84375 4.421875 -5.21875 C 4.160156 -5.59375 3.796875 -5.78125 3.328125 -5.78125 C 2.847656 -5.78125 2.476562 -5.59375 2.21875 -5.21875 C 1.96875 -4.851562 1.835938 -4.316406 1.828125 -3.609375 L 1.828125 -3.265625 C 1.828125 -2.566406 1.957031 -2.023438 2.21875 -1.640625 C 2.476562 -1.253906 2.847656 -1.0625 3.328125 -1.0625 C 3.804688 -1.0625 4.171875 -1.242188 4.421875 -1.609375 C 4.679688 -1.984375 4.8125 -2.53125 4.8125 -3.25 Z M 4.8125 -3.578125 "/>
            </g>
        </g>
    </g>
    <g fill="#ffffff" fill-opacity="1">
        <g transform="translate(153.769765, 222.042732)">
            <g>
                <path d="M 3.15625 -2.515625 L 2.03125 -2.515625 L 2.03125 0 L 0.609375 0 L 0.609375 -6.859375 L 3.15625 -6.859375 C 3.96875 -6.859375 4.59375 -6.675781 5.03125 -6.3125 C 5.46875 -5.945312 5.6875 -5.4375 5.6875 -4.78125 C 5.6875 -4.3125 5.582031 -3.921875 5.375 -3.609375 C 5.175781 -3.296875 4.875 -3.046875 4.46875 -2.859375 L 5.953125 -0.0625 L 5.953125 0 L 4.4375 0 Z M 2.03125 -3.65625 L 3.15625 -3.65625 C 3.507812 -3.65625 3.785156 -3.742188 3.984375 -3.921875 C 4.179688 -4.097656 4.28125 -4.347656 4.28125 -4.671875 C 4.28125 -4.992188 4.1875 -5.242188 4 -5.421875 C 3.820312 -5.609375 3.539062 -5.703125 3.15625 -5.703125 L 2.03125 -5.703125 Z M 2.03125 -3.65625 "/>
            </g>
        </g>
    </g>
    <g fill="#ffffff" fill-opacity="1">
        <g transform="translate(161.843889, 222.042732)">
            <g>
                <path d="M 4.734375 -2.96875 L 2.03125 -2.96875 L 2.03125 -1.140625 L 5.203125 -1.140625 L 5.203125 0 L 0.609375 0 L 0.609375 -6.859375 L 5.203125 -6.859375 L 5.203125 -5.703125 L 2.03125 -5.703125 L 2.03125 -4.078125 L 4.734375 -4.078125 Z M 4.734375 -2.96875 "/>
            </g>
        </g>
    </g>
    <g fill="#ffffff" fill-opacity="1">
        <g transform="translate(169.189028, 222.042732)">
            <g/>
        </g>
    </g>
    <g fill="#ffffff" fill-opacity="1">
        <g transform="translate(173.232546, 222.042732)">
            <g>
                <path d="M 5.765625 -5.703125 L 3.671875 -5.703125 L 3.671875 0 L 2.265625 0 L 2.265625 -5.703125 L 0.1875 -5.703125 L 0.1875 -6.859375 L 5.765625 -6.859375 Z M 5.765625 -5.703125 "/>
            </g>
        </g>
    </g>
    <g fill="#ffffff" fill-opacity="1">
        <g transform="translate(181.118546, 222.042732)">
            <g>
                <path d="M 6.1875 0 L 4.78125 0 L 4.78125 -2.9375 L 2.03125 -2.9375 L 2.03125 0 L 0.609375 0 L 0.609375 -6.859375 L 2.03125 -6.859375 L 2.03125 -4.078125 L 4.78125 -4.078125 L 4.78125 -6.859375 L 6.1875 -6.859375 Z M 6.1875 0 "/>
            </g>
        </g>
    </g>
    <g fill="#ffffff" fill-opacity="1">
        <g transform="translate(189.851104, 222.042732)">
            <g>
                <path d="M 4.734375 -2.96875 L 2.03125 -2.96875 L 2.03125 -1.140625 L 5.203125 -1.140625 L 5.203125 0 L 0.609375 0 L 0.609375 -6.859375 L 5.203125 -6.859375 L 5.203125 -5.703125 L 2.03125 -5.703125 L 2.03125 -4.078125 L 4.734375 -4.078125 Z M 4.734375 -2.96875 "/>
            </g>
        </g>
    </g>
    <g fill="#ffffff" fill-opacity="1">
        <g transform="translate(197.196242, 222.042732)">
            <g/>
        </g>
    </g>
    <g fill="#ffffff" fill-opacity="1">
        <g transform="translate(201.521991, 222.042732)">
            <g>
                <path d="M 5.796875 -6.859375 L 5.796875 -2.34375 C 5.796875 -1.59375 5.5625 -1 5.09375 -0.5625 C 4.625 -0.125 3.984375 0.09375 3.171875 0.09375 C 2.367188 0.09375 1.734375 -0.113281 1.265625 -0.53125 C 0.796875 -0.957031 0.554688 -1.539062 0.546875 -2.28125 L 0.546875 -6.859375 L 1.953125 -6.859375 L 1.953125 -2.328125 C 1.953125 -1.878906 2.0625 -1.550781 2.28125 -1.34375 C 2.5 -1.144531 2.796875 -1.046875 3.171875 -1.046875 C 3.960938 -1.046875 4.363281 -1.460938 4.375 -2.296875 L 4.375 -6.859375 Z M 5.796875 -6.859375 "/>
            </g>
        </g>
    </g>
    <g fill="#ffffff" fill-opacity="1">
        <g transform="translate(209.788931, 222.042732)">
            <g>
                <path d="M 6.1875 0 L 4.765625 0 L 2.03125 -4.515625 L 2.03125 0 L 0.609375 0 L 0.609375 -6.859375 L 2.03125 -6.859375 L 4.78125 -2.328125 L 4.78125 -6.859375 L 6.1875 -6.859375 Z M 6.1875 0 "/>
            </g>
        </g>
    </g>
    <g fill="#ffffff" fill-opacity="1">
        <g transform="translate(218.51678, 222.042732)">
            <g>
                <path d="M 2.109375 0 L 0.703125 0 L 0.703125 -6.859375 L 2.109375 -6.859375 Z M 2.109375 0 "/>
            </g>
        </g>
    </g>
    <g fill="#ffffff" fill-opacity="1">
        <g transform="translate(223.251704, 222.042732)">
            <g>
                <path d="M 3.140625 -1.703125 L 4.703125 -6.859375 L 6.265625 -6.859375 L 3.890625 0 L 2.40625 0 L 0.03125 -6.859375 L 1.59375 -6.859375 Z M 3.140625 -1.703125 "/>
            </g>
        </g>
    </g>
    <g fill="#ffffff" fill-opacity="1">
        <g transform="translate(231.476327, 222.042732)">
            <g>
                <path d="M 4.734375 -2.96875 L 2.03125 -2.96875 L 2.03125 -1.140625 L 5.203125 -1.140625 L 5.203125 0 L 0.609375 0 L 0.609375 -6.859375 L 5.203125 -6.859375 L 5.203125 -5.703125 L 2.03125 -5.703125 L 2.03125 -4.078125 L 4.734375 -4.078125 Z M 4.734375 -2.96875 "/>
            </g>
        </g>
    </g>
    <g fill="#ffffff" fill-opacity="1">
        <g transform="translate(238.821465, 222.042732)">
            <g>
                <path d="M 3.15625 -2.515625 L 2.03125 -2.515625 L 2.03125 0 L 0.609375 0 L 0.609375 -6.859375 L 3.15625 -6.859375 C 3.96875 -6.859375 4.59375 -6.675781 5.03125 -6.3125 C 5.46875 -5.945312 5.6875 -5.4375 5.6875 -4.78125 C 5.6875 -4.3125 5.582031 -3.921875 5.375 -3.609375 C 5.175781 -3.296875 4.875 -3.046875 4.46875 -2.859375 L 5.953125 -0.0625 L 5.953125 0 L 4.4375 0 Z M 2.03125 -3.65625 L 3.15625 -3.65625 C 3.507812 -3.65625 3.785156 -3.742188 3.984375 -3.921875 C 4.179688 -4.097656 4.28125 -4.347656 4.28125 -4.671875 C 4.28125 -4.992188 4.1875 -5.242188 4 -5.421875 C 3.820312 -5.609375 3.539062 -5.703125 3.15625 -5.703125 L 2.03125 -5.703125 Z M 2.03125 -3.65625 "/>
            </g>
        </g>
    </g>
    <g fill="#ffffff" fill-opacity="1">
        <g transform="translate(246.895589, 222.042732)">
            <g>
                <path d="M 4.171875 -1.796875 C 4.171875 -2.066406 4.070312 -2.269531 3.875 -2.40625 C 3.6875 -2.550781 3.347656 -2.703125 2.859375 -2.859375 C 2.367188 -3.023438 1.984375 -3.179688 1.703125 -3.328125 C 0.921875 -3.753906 0.53125 -4.320312 0.53125 -5.03125 C 0.53125 -5.40625 0.632812 -5.734375 0.84375 -6.015625 C 1.050781 -6.304688 1.347656 -6.535156 1.734375 -6.703125 C 2.128906 -6.867188 2.570312 -6.953125 3.0625 -6.953125 C 3.550781 -6.953125 3.988281 -6.863281 4.375 -6.6875 C 4.757812 -6.507812 5.054688 -6.257812 5.265625 -5.9375 C 5.472656 -5.613281 5.578125 -5.242188 5.578125 -4.828125 L 4.171875 -4.828125 C 4.171875 -5.140625 4.070312 -5.382812 3.875 -5.5625 C 3.675781 -5.738281 3.398438 -5.828125 3.046875 -5.828125 C 2.691406 -5.828125 2.421875 -5.753906 2.234375 -5.609375 C 2.046875 -5.460938 1.953125 -5.269531 1.953125 -5.03125 C 1.953125 -4.800781 2.0625 -4.609375 2.28125 -4.453125 C 2.507812 -4.304688 2.84375 -4.171875 3.28125 -4.046875 C 4.082031 -3.804688 4.664062 -3.503906 5.03125 -3.140625 C 5.394531 -2.785156 5.578125 -2.34375 5.578125 -1.8125 C 5.578125 -1.21875 5.351562 -0.75 4.90625 -0.40625 C 4.457031 -0.0703125 3.851562 0.09375 3.09375 0.09375 C 2.570312 0.09375 2.09375 0 1.65625 -0.1875 C 1.21875 -0.382812 0.882812 -0.648438 0.65625 -0.984375 C 0.4375 -1.328125 0.328125 -1.71875 0.328125 -2.15625 L 1.734375 -2.15625 C 1.734375 -1.394531 2.1875 -1.015625 3.09375 -1.015625 C 3.425781 -1.015625 3.6875 -1.082031 3.875 -1.21875 C 4.070312 -1.363281 4.171875 -1.554688 4.171875 -1.796875 Z M 4.171875 -1.796875 "/>
            </g>
        </g>
    </g>
    <g fill="#ffffff" fill-opacity="1">
        <g transform="translate(254.743965, 222.042732)">
            <g>
                <path d="M 4.734375 -2.96875 L 2.03125 -2.96875 L 2.03125 -1.140625 L 5.203125 -1.140625 L 5.203125 0 L 0.609375 0 L 0.609375 -6.859375 L 5.203125 -6.859375 L 5.203125 -5.703125 L 2.03125 -5.703125 L 2.03125 -4.078125 L 4.734375 -4.078125 Z M 4.734375 -2.96875 "/>
            </g>
        </g>
    </g>
</svg>